<svg xmlns="http://www.w3.org/2000/svg" viewBox="0 0 64 64" role="img" aria-label="GQM icon">
  <defs>
    <linearGradient id="gGold" x1="0" y1="0" x2="1" y2="1">
      <stop offset="0%" stop-color="#FFC928"/>
      <stop offset="100%" stop-color="#D99A00"/>
    </linearGradient>
    <linearGradient id="qTeal" x1="0" y1="0" x2="1" y2="1">
      <stop offset="0%" stop-color="#1AC6B3"/>
      <stop offset="100%" stop-color="#0B8E80"/>
    </linearGradient>
    <linearGradient id="mGreen" x1="0" y1="0" x2="1" y2="1">
      <stop offset="0%" stop-color="#244C2E"/>
      <stop offset="100%" stop-color="#142C1C"/>
    </linearGradient>
  </defs>

  <rect width="64" height="64" rx="14" fill="#ffffff"/>

  <!-- G -->
  <path fill="url(#gGold)" d="M18.5 10C10.5 10 4 16.5 4 24.5S10.5 39 18.5 39c5.7 0 10.8-3.3 13.2-8.4V23H19v6.8h5.1c-1.7 1.6-3.6 2.4-5.9 2.4-4.3 0-7.8-3.5-7.8-7.8s3.5-7.8 7.8-7.8c2.2 0 4.2.9 5.7 2.4l4.8-4.8C26 11.6 22.4 10 18.5 10Z"/>

  <!-- Q -->
  <path fill="url(#qTeal)" d="M37 14c-7.7 0-14 6.3-14 14s6.3 14 14 14c2.2 0 4.2-.5 6.1-1.4l4.6 4.6 4.2-4.2-4.3-4.3c2.1-2.4 3.4-5.6 3.4-9.1 0-7.7-6.3-14-14-14Zm0 6.3c4.2 0 7.7 3.5 7.7 7.7s-3.5 7.7-7.7 7.7-7.7-3.5-7.7-7.7 3.5-7.7 7.7-7.7Z"/>

  <!-- M -->
  <path fill="url(#mGreen)" d="M39.8 14h7.3l4.6 12.1L56.3 14H60v26h-6.2V24.7l-4.7 12.1h-4.3l-4.9-12.1V40h-6.1V14Z"/>

  <!-- Star accent -->
  <path fill="url(#gGold)" d="M56.6 11.2l1.2 3.2 3.2 1.2-3.2 1.2-1.2 3.2-1.2-3.2-3.2-1.2 3.2-1.2 1.2-3.2Z"/>
</svg>
